<svg width="24" height="24" viewBox="0 0 24 24" fill="none" xmlns="http://www.w3.org/2000/svg">
<path d="M12.0258 2C7.80583 2 4.5 4.5625 4.5 7.83333V18.8775C4.5 20.5392 7 22 12.0242 22C16.9742 22 19.5 20.5458 19.5 18.8775V7.83333C19.5 4.5625 16.2175 2 12.0258 2ZM12.0258 2.83333C15.605 2.83333 18.4308 4.86417 18.645 7.51C17.3942 6.71167 14.8908 6.16667 12 6.16667C9.11083 6.16667 6.60667 6.71167 5.35417 7.51C5.57167 4.86417 8.41917 2.83333 12.0258 2.83333ZM12.065 10.1508C10.3542 10.1508 6.6575 9.82583 6.6575 8.99167C6.6575 8.15 9.97917 7.83333 12.065 7.83333C14.205 7.83333 17.4917 8.15833 17.4917 8.9925C17.4917 9.83417 13.8167 10.1508 12.065 10.1508V10.1508ZM12.0242 20.3333C7.52667 20.3333 6.21917 19.0992 6.16667 18.8775V10.9542C6.41667 11.0808 6.69333 11.1992 7 11.3067V15.75C7 16.4408 7.56 17 8.25 17C8.94 17 9.5 16.4408 9.5 15.75V14.5C9.5 14.04 9.8725 13.6667 10.3333 13.6667C10.7942 13.6667 11.1667 14.04 11.1667 14.5V17C11.1667 17.46 11.5392 17.8333 12 17.8333C12.4608 17.8333 12.8333 17.46 12.8333 17V13.6667C12.8333 13.2067 13.2058 12.8333 13.6667 12.8333C14.1275 12.8333 14.5 13.2067 14.5 13.6667V14.0833C14.5 14.7742 15.06 15.3333 15.75 15.3333C16.44 15.3333 17 14.7742 17 14.0833V11.3083C17.3075 11.2008 17.5825 11.0817 17.8333 10.955L17.835 18.8717C17.78 19.0992 16.4792 20.3333 12.0242 20.3333V20.3333Z" fill="black"/>
</svg>
